<svg id="Layer_1" data-name="Layer 1" xmlns="http://www.w3.org/2000/svg" viewBox="0 0 361 207"><defs><style>.cls-1{fill:#f26522;}.cls-2{fill:#f15a29;}.cls-3{fill:#fbb040;stroke:#fbb040;stroke-miterlimit:10;}</style></defs><polygon class="cls-1" points="180.5 0 0.5 34.06 360.5 34.06 180.5 0"/><rect class="cls-2" x="0.5" y="92.87" width="360" height="30.23"/><polygon class="cls-2" points="146.4 170.16 0.5 170.16 146.4 207 146.4 170.16"/><polygon class="cls-2" points="214.6 170.16 360.5 170.16 214.6 207 214.6 170.16"/><path class="cls-3" d="M7.2,46.66h4.4V86.25H28.46v4.28H7.2Z" transform="translate(-6.7 -4.5)"/><path class="cls-3" d="M34.83,46.66h4.4V90.53h-4.4Z" transform="translate(-6.7 -4.5)"/><path class="cls-3" d="M56.84,51.3a20.29,20.29,0,0,1-2.51,10.63L52,60.59a16.44,16.44,0,0,0,2.08-6.84H51.46V45.56h5.38Z" transform="translate(-6.7 -4.5)"/><path class="cls-3" d="M70.78,46.66h4.4V86.25H92v4.28H70.78Z" transform="translate(-6.7 -4.5)"/><path class="cls-3" d="M116.08,90.53V46.66h9.29c9.22,0,13.44,4.52,13.44,10.69a10.13,10.13,0,0,1-5.62,9.23c6.11,2.07,9.23,5.86,9.23,11.36,0,6.54-5.08,12.59-14.3,12.59Zm4.4-25.48h2.93c3.3,0,5.87-.43,7.7-1.65a7.24,7.24,0,0,0,3.12-6c0-3.91-2.94-6.41-8-6.41h-5.74Zm0,21.2h5.31c1.9,0,3.79-.3,5.26-.43A8.11,8.11,0,0,0,137.83,78a8,8,0,0,0-4.28-7c-2.56-1.41-6-1.66-10.08-1.66h-3Z" transform="translate(-6.7 -4.5)"/><path class="cls-3" d="M169,46.66l20.47,43.87h-4.71l-6.9-14.42H158.93l-6.84,14.42H147.2L168,46.66ZM168.46,56l-7.58,15.88h15Z" transform="translate(-6.7 -4.5)"/><path class="cls-3" d="M213.15,55.46c-2.38-3.12-4.46-5.38-8.06-5.38a5.56,5.56,0,0,0-5.93,5.56,8.85,8.85,0,0,0,3.91,6.78c8.25,6.11,14.3,10.33,14.3,17.42A12.09,12.09,0,0,1,205,91.63c-6,0-10-3.36-13.26-9.29l3.73-2.26c2.63,4.83,5.81,7.27,9.17,7.27,4.58,0,8.12-3.36,8.12-7.45,0-4.83-4.52-7.58-14.48-15.65a11.5,11.5,0,0,1-3.72-8.43c0-6,4.7-10.26,10.63-10.26,5.38,0,8.61,3.24,11.49,7.15Z" transform="translate(-6.7 -4.5)"/><path class="cls-3" d="M222.39,50.94V46.66h24.08v4.28h-9.78V90.53h-4.4V50.94Z" transform="translate(-6.7 -4.5)"/><path class="cls-3" d="M265.79,46.66l20.47,43.87h-4.71l-6.9-14.42H255.71l-6.85,14.42H244l20.78-43.87ZM265.24,56l-7.58,15.88h15Z" transform="translate(-6.7 -4.5)"/><path class="cls-3" d="M293.31,46.66h10.08c4.58,0,8.06.3,10.2,1.1a10.86,10.86,0,0,1,7.21,10.57,10.51,10.51,0,0,1-1.28,5.44c-2.26,4.58-6.66,6.35-13.93,6.35l15.82,20.41H316L300.21,70.12h-2.5V90.53h-4.4Zm4.4,4.28v14.9c2.44,0,4.94.07,7.27.07,3.79,0,6.72-.37,8.61-1.9a7.39,7.39,0,0,0,2.63-5.68c0-4.28-2.93-7.39-9.53-7.39Z" transform="translate(-6.7 -4.5)"/><path class="cls-3" d="M330.17,46.66H341c4.82,0,9.28.24,13.62,2,7.88,3.18,12.59,10.76,12.59,20.41,0,12.53-7.58,21.45-21.69,21.45H330.17Zm10.88,39.59c8.31,0,13.81-.73,17.72-5.5a18,18,0,0,0,3.85-11.61A18.71,18.71,0,0,0,359,57.53c-4.15-5.44-10.39-6.59-19.92-6.59h-4.46V86.25Z" transform="translate(-6.7 -4.5)"/><path class="cls-3" d="M36.05,151.66c0,8.59-5.5,13.64-13.59,13.64-9.38,0-15.26-6.71-15.26-14.17,0-7.64,6-14.2,14.84-14.2,5,0,8.78,1.81,12.39,5.24l-2.07,2a14.92,14.92,0,0,0-10.24-4.56c-6.48,0-12.1,5-12.1,11.49,0,6.21,5.24,11.75,12.51,11.75,5.12,0,9.72-3.05,10.47-8.51H24.38v-2.64Z" transform="translate(-6.7 -4.5)"/><path class="cls-3" d="M41.23,137.61H56.68v2.64H43.94v8.47H56.68v2.64H43.94V162H56.68v2.64H41.23Z" transform="translate(-6.7 -4.5)"/><path class="cls-3" d="M61.47,164.66v-27H62L80,158.33V137.61h2.71v27h-.6L64.18,144.2v20.46Z" transform="translate(-6.7 -4.5)"/><path class="cls-3" d="M89.32,137.61h15.45v2.64H92v8.47h12.73v2.64H92V162h12.73v2.64H89.32Z" transform="translate(-6.7 -4.5)"/><path class="cls-3" d="M109.64,137.61h6.21a20.14,20.14,0,0,1,6.3.68,6.69,6.69,0,0,1,4.44,6.52,6.52,6.52,0,0,1-.79,3.35c-1.39,2.82-4.11,3.92-8.59,3.92L127,164.66h-3.36l-9.71-12.58h-1.55v12.58h-2.71Zm2.71,2.64v9.19c1.51,0,3.05,0,4.48,0,2.34,0,4.15-.23,5.32-1.17a4.55,4.55,0,0,0,1.61-3.5c0-2.64-1.8-4.56-5.87-4.56Z" transform="translate(-6.7 -4.5)"/><path class="cls-3" d="M143.44,137.61l12.62,27h-2.9l-4.26-8.89H137.23L133,164.66h-3l12.81-27Zm-.34,5.73-4.67,9.79h9.27Z" transform="translate(-6.7 -4.5)"/><path class="cls-3" d="M160.29,137.61H163V162H173.4v2.64H160.29Z" transform="translate(-6.7 -4.5)"/><path class="cls-3" d="M188.3,137.61h6.21a20.07,20.07,0,0,1,6.29.68,6.69,6.69,0,0,1,4.45,6.52,6.52,6.52,0,0,1-.79,3.35c-1.4,2.82-4.11,3.92-8.59,3.92l9.75,12.58h-3.35l-9.72-12.58H191v12.58H188.3Zm2.71,2.64v9.19c1.51,0,3.05,0,4.48,0,2.34,0,4.14-.23,5.31-1.17a4.56,4.56,0,0,0,1.62-3.5c0-2.64-1.81-4.56-5.87-4.56Z" transform="translate(-6.7 -4.5)"/><path class="cls-3" d="M211.06,137.61h15.45v2.64H213.77v8.47h12.74v2.64H213.77V162h12.74v2.64H211.06Z" transform="translate(-6.7 -4.5)"/><path class="cls-3" d="M241.62,143c-1.47-1.93-2.75-3.32-5-3.32a3.42,3.42,0,0,0-3.65,3.43,5.45,5.45,0,0,0,2.41,4.18c5.08,3.77,8.81,6.37,8.81,10.74a7.45,7.45,0,0,1-7.61,7.27c-3.73,0-6.18-2.08-8.17-5.73l2.3-1.39c1.62,3,3.57,4.48,5.65,4.48a4.79,4.79,0,0,0,5-4.6c0-3-2.79-4.67-8.93-9.64a7.1,7.1,0,0,1-2.3-5.2,6.28,6.28,0,0,1,6.56-6.33c3.31,0,5.31,2,7.08,4.41Z" transform="translate(-6.7 -4.5)"/><path class="cls-3" d="M250,137.61h6.25a19.82,19.82,0,0,1,6.25.68,6.74,6.74,0,0,1,4.45,6.52,6.83,6.83,0,0,1-3.13,5.91c-1.92,1.21-4.71,1.36-8.44,1.36h-2.67v12.58H250Zm2.71,2.64v9.19c1.54,0,3.09,0,4.48,0,2.34,0,4.14-.15,5.35-1.13a4.67,4.67,0,0,0,1.58-3.5,4.62,4.62,0,0,0-1.69-3.55c-1.21-.9-2.83-1-4.94-1Z" transform="translate(-6.7 -4.5)"/><path class="cls-3" d="M299.65,151.13a14.26,14.26,0,1,1-14.46-14.2A14.05,14.05,0,0,1,299.65,151.13Zm-25.68.12a11.43,11.43,0,1,0,22.86-.15,11.43,11.43,0,1,0-22.86.15Z" transform="translate(-6.7 -4.5)"/><path class="cls-3" d="M305.13,164.66v-27h.57l17.93,20.72V137.61h2.71v27h-.6L307.85,144.2v20.46Z" transform="translate(-6.7 -4.5)"/><path class="cls-3" d="M343.35,143c-1.47-1.93-2.75-3.32-5-3.32a3.43,3.43,0,0,0-3.65,3.43,5.48,5.48,0,0,0,2.41,4.18c5.08,3.77,8.81,6.37,8.81,10.74a7.45,7.45,0,0,1-7.61,7.27c-3.72,0-6.17-2.08-8.17-5.73l2.3-1.39c1.62,3,3.58,4.48,5.65,4.48a4.79,4.79,0,0,0,5-4.6c0-3-2.79-4.67-8.93-9.64a7.1,7.1,0,0,1-2.3-5.2,6.29,6.29,0,0,1,6.56-6.33c3.31,0,5.31,2,7.08,4.41Z" transform="translate(-6.7 -4.5)"/><path class="cls-3" d="M351.76,137.61H367.2v2.64H354.47v8.47H367.2v2.64H354.47V162H367.2v2.64H351.76Z" transform="translate(-6.7 -4.5)"/><path class="cls-3" d="M164.21,180.61c-.65-.85-1.21-1.46-2.19-1.46a1.51,1.51,0,0,0-1.61,1.51,2.39,2.39,0,0,0,1.06,1.84c2.24,1.66,3.88,2.81,3.88,4.73a3.28,3.28,0,0,1-3.35,3.2c-1.64,0-2.72-.91-3.6-2.52l1-.61c.72,1.31,1.58,2,2.49,2a2.11,2.11,0,0,0,2.21-2c0-1.31-1.23-2.06-3.93-4.25a3.1,3.1,0,0,1-1-2.29,2.77,2.77,0,0,1,2.89-2.79,3.81,3.81,0,0,1,3.12,1.94Z" transform="translate(-6.7 -4.5)"/><path class="cls-3" d="M179.94,184.18a6.28,6.28,0,1,1-6.37-6.26A6.19,6.19,0,0,1,179.94,184.18Zm-11.31,0a5,5,0,1,0,10.07-.07,5,5,0,1,0-10.07.07Z" transform="translate(-6.7 -4.5)"/><path class="cls-3" d="M189.07,178.22h1.2V186c0,2.8-1.51,4.46-4,4.46s-3.95-1.66-3.95-4.46v-7.75h1.2v7.57a3.65,3.65,0,0,0,.63,2.54,2.86,2.86,0,0,0,4.24,0,3.65,3.65,0,0,0,.63-2.54Z" transform="translate(-6.7 -4.5)"/><path class="cls-3" d="M193.23,190.14V178.22h.25l7.89,9.13v-9.13h1.2v11.92h-.27l-7.88-9v9Z" transform="translate(-6.7 -4.5)"/><path class="cls-3" d="M205.48,178.22h2.94a9.53,9.53,0,0,1,3.7.55,5.65,5.65,0,0,1,3.41,5.54c0,3.4-2.05,5.83-5.89,5.83h-4.16Zm3,10.75c2.26,0,3.75-.2,4.81-1.49a4.88,4.88,0,0,0,1-3.15,5,5,0,0,0-1-3.15c-1.12-1.48-2.82-1.8-5.4-1.8h-1.22V189Z" transform="translate(-6.7 -4.5)"/><path class="cls-3" d="M159.66,210.06V198.14h2.52c2.51,0,3.65,1.23,3.65,2.91a2.74,2.74,0,0,1-1.52,2.5,3.16,3.16,0,0,1,2.5,3.09c0,1.77-1.37,3.42-3.88,3.42Zm1.2-6.92h.79a3.75,3.75,0,0,0,2.09-.45,2,2,0,0,0,.85-1.64c0-1.06-.8-1.74-2.17-1.74h-1.56Zm0,5.76h1.44c.51,0,1-.09,1.43-.12a2.21,2.21,0,0,0,1.84-2.12,2.18,2.18,0,0,0-1.16-1.91,5.86,5.86,0,0,0-2.74-.45h-.81Z" transform="translate(-6.7 -4.5)"/><path class="cls-3" d="M181.2,204.1a6.28,6.28,0,1,1-6.37-6.25A6.2,6.2,0,0,1,181.2,204.1Zm-11.31.05a5,5,0,1,0,5-5.14A5,5,0,0,0,169.89,204.15Z" transform="translate(-6.7 -4.5)"/><path class="cls-3" d="M188.46,198.14,194,210.06h-1.28l-1.87-3.92h-5.15l-1.86,3.92h-1.32l5.64-11.92Zm-.15,2.53L186.25,205h4.09Z" transform="translate(-6.7 -4.5)"/><path class="cls-3" d="M195.93,198.14h2.74a9,9,0,0,1,2.77.3,3,3,0,0,1,2,2.87,2.82,2.82,0,0,1-.35,1.48c-.61,1.24-1.81,1.73-3.78,1.73l4.3,5.54h-1.48l-4.28-5.54h-.68v5.54h-1.2Zm1.2,1.17v4l2,0a3.77,3.77,0,0,0,2.34-.51,2,2,0,0,0,.72-1.55c0-1.16-.8-2-2.59-2Z" transform="translate(-6.7 -4.5)"/><path class="cls-3" d="M206,198.14h2.93a9.53,9.53,0,0,1,3.7.55,5.65,5.65,0,0,1,3.42,5.54c0,3.4-2.06,5.83-5.89,5.83H206Zm3,10.76c2.26,0,3.75-.2,4.81-1.5a4.88,4.88,0,0,0,1-3.15,5.09,5.09,0,0,0-1-3.15c-1.13-1.48-2.82-1.79-5.41-1.79h-1.21v9.59Z" transform="translate(-6.7 -4.5)"/></svg>